<svg xmlns="http://www.w3.org/2000/svg" viewBox="0 0 320 320" width="600" height="600" role="img"><title>Six-Axis Political Compass — US Political Parties</title><rect x="0" y="0" width="320" height="320" fill="#ffffff"></rect><polygon points="170.80,141.29 181.60,160.00 170.80,178.71 149.20,178.71 138.40,160.00 149.20,141.29" fill="none" stroke="var(--chart-grid)" stroke-width="1"></polygon><polygon points="181.60,122.59 203.20,160.00 181.60,197.41 138.40,197.41 116.80,160.00 138.40,122.59" fill="none" stroke="var(--chart-grid)" stroke-width="1"></polygon><polygon points="192.40,103.88 224.80,160.00 192.40,216.12 127.60,216.12 95.20,160.00 127.60,103.88" fill="none" stroke="var(--chart-grid)" stroke-width="1"></polygon><polygon points="203.20,85.18 246.40,160.00 203.20,234.82 116.80,234.82 73.60,160.00 116.80,85.18" fill="none" stroke="var(--chart-grid)" stroke-width="1"></polygon><polygon points="214.00,66.47 268.00,160.00 214.00,253.53 106.00,253.53 52.00,160.00 106.00,66.47" fill="none" stroke="var(--chart-grid)" stroke-width="1"></polygon><line x1="160" y1="160" x2="214" y2="66.46925639128064" stroke="var(--chart-axis)" stroke-width="1"></line><line x1="160" y1="160" x2="268" y2="160" stroke="var(--chart-axis)" stroke-width="1"></line><line x1="160" y1="160" x2="214" y2="253.53074360871938" stroke="var(--chart-axis)" stroke-width="1"></line><line x1="160" y1="160" x2="106.00000000000003" y2="253.53074360871938" stroke="var(--chart-axis)" stroke-width="1"></line><line x1="160" y1="160" x2="52" y2="160" stroke="var(--chart-axis)" stroke-width="1"></line><line x1="160" y1="160" x2="105.99999999999994" y2="66.46925639128064" stroke="var(--chart-axis)" stroke-width="1"></line><polygon points="176.20,131.94 235.60,160.00 181.60,197.41 138.40,197.41 116.80,160.00 127.60,103.88" fill="#3C6EC918" stroke="#3C6EC980" stroke-width="1.5"></polygon><polygon points="203.20,85.18 246.40,160.00 197.80,225.47 138.40,197.41 149.20,160.00 138.40,122.59" fill="#C0392B18" stroke="#C0392B80" stroke-width="1.5"></polygon><text x="227.00" y="43.95" text-anchor="middle" dominant-baseline="middle" font-size="11" font-family="-apple-system,BlinkMacSystemFont,sans-serif" fill="var(--chart-label)">Cultural</text><text x="294.00" y="160.00" text-anchor="middle" dominant-baseline="middle" font-size="11" font-family="-apple-system,BlinkMacSystemFont,sans-serif" fill="var(--chart-label)">Military</text><text x="227.00" y="276.05" text-anchor="middle" dominant-baseline="middle" font-size="11" font-family="-apple-system,BlinkMacSystemFont,sans-serif" fill="var(--chart-label)">Sovereignty</text><text x="93.00" y="276.05" text-anchor="middle" dominant-baseline="middle" font-size="11" font-family="-apple-system,BlinkMacSystemFont,sans-serif" fill="var(--chart-label)">Economic</text><text x="26.00" y="160.00" text-anchor="middle" dominant-baseline="middle" font-size="11" font-family="-apple-system,BlinkMacSystemFont,sans-serif" fill="var(--chart-label)">Class</text><text x="93.00" y="43.95" text-anchor="middle" dominant-baseline="middle" font-size="11" font-family="-apple-system,BlinkMacSystemFont,sans-serif" fill="var(--chart-label)">Governance</text><rect x="0" y="0" width="320" height="320" fill="none" stroke="#cccccc" stroke-width="1"></rect></svg>
