<svg xmlns="http://www.w3.org/2000/svg" viewBox="0 0 320 320" width="600" height="600" role="img"><title>Six-Axis Political Compass — Restore Britain</title><rect x="0" y="0" width="320" height="320" fill="#ffffff"></rect><polygon points="170.80,141.29 181.60,160.00 170.80,178.71 149.20,178.71 138.40,160.00 149.20,141.29" fill="none" stroke="rgba(0,0,0,0.15)" stroke-width="1"></polygon><polygon points="181.60,122.59 203.20,160.00 181.60,197.41 138.40,197.41 116.80,160.00 138.40,122.59" fill="none" stroke="rgba(0,0,0,0.15)" stroke-width="1"></polygon><polygon points="192.40,103.88 224.80,160.00 192.40,216.12 127.60,216.12 95.20,160.00 127.60,103.88" fill="none" stroke="rgba(0,0,0,0.15)" stroke-width="1"></polygon><polygon points="203.20,85.18 246.40,160.00 203.20,234.82 116.80,234.82 73.60,160.00 116.80,85.18" fill="none" stroke="rgba(0,0,0,0.15)" stroke-width="1"></polygon><polygon points="214.00,66.47 268.00,160.00 214.00,253.53 106.00,253.53 52.00,160.00 106.00,66.47" fill="none" stroke="rgba(0,0,0,0.15)" stroke-width="1"></polygon><line x1="160" y1="160" x2="214" y2="66.46925639128064" stroke="rgba(0,0,0,0.2)" stroke-width="1"></line><line x1="160" y1="160" x2="268" y2="160" stroke="rgba(0,0,0,0.2)" stroke-width="1"></line><line x1="160" y1="160" x2="214" y2="253.53074360871938" stroke="rgba(0,0,0,0.2)" stroke-width="1"></line><line x1="160" y1="160" x2="106.00000000000003" y2="253.53074360871938" stroke="rgba(0,0,0,0.2)" stroke-width="1"></line><line x1="160" y1="160" x2="52" y2="160" stroke="rgba(0,0,0,0.2)" stroke-width="1"></line><line x1="160" y1="160" x2="105.99999999999994" y2="66.46925639128064" stroke="rgba(0,0,0,0.2)" stroke-width="1"></line><polygon points="200.50,89.85 160.00,160.00 183.76,201.15 109.24,247.92 58.48,160.00 160.00,160.00" fill="#8B00001e" stroke="#8B0000" stroke-width="2.5"></polygon><circle cx="200.5" cy="89.85194229346047" r="4" fill="#8B0000"></circle><circle cx="160" cy="160" r="4" fill="#8B0000"></circle><circle cx="183.76" cy="201.15352718783652" r="4" fill="#8B0000"></circle><circle cx="109.24000000000001" cy="247.91889899219623" r="4" fill="#8B0000"></circle><circle cx="58.47999999999999" cy="160" r="4" fill="#8B0000"></circle><circle cx="160" cy="160" r="4" fill="#8B0000"></circle><text x="227.00" y="43.95" text-anchor="middle" dominant-baseline="middle" font-size="11" font-family="-apple-system,BlinkMacSystemFont,sans-serif" fill="#333333">Cultural</text><text x="294.00" y="160.00" text-anchor="middle" dominant-baseline="middle" font-size="11" font-family="-apple-system,BlinkMacSystemFont,sans-serif" fill="#333333">Economic</text><text x="227.00" y="276.05" text-anchor="middle" dominant-baseline="middle" font-size="11" font-family="-apple-system,BlinkMacSystemFont,sans-serif" fill="#333333">Military</text><text x="93.00" y="276.05" text-anchor="middle" dominant-baseline="middle" font-size="11" font-family="-apple-system,BlinkMacSystemFont,sans-serif" fill="#333333">Sovereignty</text><text x="26.00" y="160.00" text-anchor="middle" dominant-baseline="middle" font-size="11" font-family="-apple-system,BlinkMacSystemFont,sans-serif" fill="#333333">Governance</text><text x="93.00" y="43.95" text-anchor="middle" dominant-baseline="middle" font-size="11" font-family="-apple-system,BlinkMacSystemFont,sans-serif" fill="#333333">Class</text><rect x="0" y="0" width="320" height="320" fill="none" stroke="#cccccc" stroke-width="1"></rect></svg>
