<svg xmlns="http://www.w3.org/2000/svg" viewBox="0 0 512 512">
  <rect width="512" height="512" fill="#0f0f0f"/>
  <g fill="none" stroke="#c8a84b" stroke-width="12" opacity="0.4">
    <line x1="256" y1="256" x2="256" y2="64"/>
    <line x1="256" y1="256" x2="431" y2="160"/>
    <line x1="256" y1="256" x2="431" y2="352"/>
    <line x1="256" y1="256" x2="256" y2="448"/>
    <line x1="256" y1="256" x2="81" y2="352"/>
    <line x1="256" y1="256" x2="81" y2="160"/>
  </g>
  <polygon points="256,80 424,168 424,344 256,432 88,344 88,168" fill="none" stroke="#c8a84b" stroke-width="24"/>
  <polygon points="256,128 360,192 360,320 256,384 152,320 152,192" fill="#c8a84b" opacity="0.25"/>
  <polygon points="256,128 360,192 360,320 256,384 152,320 152,192" fill="none" stroke="#c8a84b" stroke-width="16"/>
</svg>
